<?xml version="1.0" encoding="utf-8"?>
<!-- Generator: Adobe Illustrator 18.0.0, SVG Export Plug-In . SVG Version: 6.00 Build 0)  -->
<!DOCTYPE svg PUBLIC "-//W3C//DTD SVG 1.1//EN" "http://www.w3.org/Graphics/SVG/1.1/DTD/svg11.dtd">
<svg version="1.1" id="Layer_1" xmlns="http://www.w3.org/2000/svg" xmlns:xlink="http://www.w3.org/1999/xlink" x="0px" y="0px"
	 viewBox="0 0 841.89 595.28" enable-background="new 0 0 841.89 595.28" xml:space="preserve">
<path fill="#262626" d="M161.1817,320.965h-5.8294v26.3004h-28.468V263.079h32.8065c11.1165,0,19.2035,2.2591,24.2658,6.7776
	c5.0608,4.52,7.5925,11.9762,7.5925,22.369c0,10.3942-2.4406,17.7824-7.3214,22.1646
	C179.3485,318.7754,171.6645,320.965,161.1817,320.965z M162.6058,301.3077c0.7671-1.4442,1.1514-3.8848,1.1514-7.3199
	c0-3.4337-0.4291-5.8742-1.2877-7.3199c-0.86-1.4457-2.4637-2.1694-4.8128-2.1694h-2.8465v18.9787h3.5251
	C160.4132,303.4768,161.8357,302.7549,162.6058,301.3077z"/>
<path fill="#262626" d="M264.618,290.1912c0,5.4234-0.8802,9.7403-2.6434,12.9479c-1.762,3.2092-4.4968,6.0322-8.2017,8.4728
	l12.6085,35.6534h-29.9606l-8.4062-29.0117h-2.1679v29.0117h-27.7909v-84.1864h35.9245c10.4827,0,18.2101,2.1926,23.1812,6.5748
	C262.131,274.0386,264.618,280.8846,264.618,290.1912z M233.0988,299.8852c0.8586-1.2209,1.2877-3.3656,1.2877-6.4399
	c0-3.0714-0.4523-5.1956-1.3545-6.3717c-0.9049-1.1731-2.3057-1.762-4.2037-1.762h-3.5236v16.4033h3.3888
	C230.7714,301.7151,232.2387,301.1046,233.0988,299.8852z"/>
<path fill="#262626" d="M271.6667,304.6297c0-15.0476,3.0031-25.9609,9.0151-32.74c6.009-6.7776,15.9061-10.1664,29.6891-10.1664
	c13.7801,0,23.632,3.344,29.5529,10.0316c5.9194,6.6891,8.8802,17.5562,8.8802,32.6037s-3.0509,26.1872-9.1514,33.4171
	c-6.1005,7.2317-15.9525,10.8453-29.5529,10.8453c-13.6033,0-23.4087-3.5688-29.418-10.7102
	C274.6697,330.7735,271.6667,319.6773,271.6667,304.6297z M317.894,288.4976c-1.1746-2.3057-3.7063-3.4571-7.5913-3.4571
	c-3.8877,0-6.3717,1.1312-7.4562,3.3888c-1.0846,2.2606-1.6271,7.0966-1.6271,14.5053v5.9657
	c0,7.5913,0.5874,12.5185,1.7635,14.7764c1.173,2.2606,3.7484,3.3888,7.7262,3.3888c3.9762,0,6.4616-1.0846,7.4562-3.2525
	c0.9934-2.1694,1.492-7.0039,1.492-14.5068v-6.2354C319.6574,295.6609,319.0685,290.8018,317.894,288.4976z"/>
<polygon fill="#32D87D" points="400.0189,354.2762 400.0189,241.28 374.7001,241.28 374.7001,361.3831 374.7003,361.3831 
	374.7003,368.127 400.0192,368.127 400.0192,354.2761 "/>
<path fill="#262626" d="M415.6371,320.4227c0-8.9471-3.5251-15.7247-10.5739-20.3347c-2.4406-1.5357-4.362-2.6434-5.7611-3.3208
	c-1.4023-0.6786-3.4803-1.5805-6.2368-2.7117c-2.758-1.1297-4.3852-1.8068-4.8796-2.0346
	c-0.4989-0.2233-1.1312-0.4743-1.8983-0.7454c-0.7686-0.2711-1.2877-0.496-1.5588-0.6771
	c-0.2711-0.1797-0.6786-0.4276-1.2209-0.7454c-0.5423-0.316-0.8134-0.8817-0.8134-1.6951c0-2.1694,1.7634-3.254,5.2871-3.254
	c3.5251,0,10.935,1.1312,22.2326,3.3903l3.1191-23.8598c-5.1588-0.9126-10.2404-1.5915-15.248-2.0435
	c-4.9079-0.4431-9.7447-0.6682-14.5092-0.6682c-2.4512,0-4.7629,0.1654-6.9413,0.4879c-6.3761,0.9438-11.5887,3.2644-15.6305,6.9683
	c-5.4219,4.9708-8.1336,11.9299-8.1336,20.8769s3.6136,15.9073,10.8453,20.877c2.3491,1.6272,4.3822,2.8264,6.1005,3.5934
	c1.7154,0.7686,3.8399,1.6735,6.3717,2.7102c2.5291,1.0412,4.4502,1.8778,5.761,2.5086c1.3094,0.6338,2.3043,1.2194,2.9828,1.762
	c0.6771,0.5423,1.0165,1.2675,1.0165,2.1694c0,1.9894-1.4023,2.9828-4.2022,2.9828c-4.2489,0-12.4273-1.5357-24.5369-4.6097
	l-1.8983,22.9113c6.9971,1.7819,14.1073,2.8973,21.3236,3.3778c2.6615,0.1773,5.3349,0.2821,8.0261,0.2821
	c5.0789,0,9.5493-0.6444,13.4246-1.9188c3.7437-1.231,6.933-3.0491,9.5535-5.4694
	C412.9705,336.3083,415.6371,329.3712,415.6371,320.4227z"/>
<path fill="#262626" d="M456.7109,320.965h-5.8294v26.3004h-28.468V263.079h32.8069c11.1165,0,19.2035,2.2591,24.2658,6.7776
	c5.0608,4.52,7.5925,11.9762,7.5925,22.369c0,10.3942-2.4405,17.7824-7.3214,22.1646
	C474.8776,318.7754,467.1936,320.965,456.7109,320.965z M458.1349,301.3077c0.7671-1.4442,1.1514-3.8848,1.1514-7.3199
	c0-3.4337-0.4291-5.8742-1.2877-7.3199c-0.86-1.4457-2.4637-2.1694-4.8128-2.1694h-2.8465v18.9787h3.5251
	C455.9424,303.4768,457.3648,302.7549,458.1349,301.3077z"/>
<path fill="#262626" d="M547.269,347.2653h-53.6838v-84.1864h55.5818l-1.8983,22.3675h-24.6733v10.1679h21.5555v19.5209h-21.5555
	v11.5239h26.5715L547.269,347.2653z"/>
<path fill="#262626" d="M622.6428,290.1912c0,5.4234-0.8802,9.7403-2.6434,12.9479c-1.762,3.2092-4.4968,6.0322-8.2017,8.4728
	l12.6085,35.6534H594.446l-8.4062-29.0117h-2.1679v29.0117H556.081v-84.1864h35.9245c10.4827,0,18.2101,2.1926,23.1812,6.5748
	C620.1559,274.0386,622.6428,280.8846,622.6428,290.1912z M591.1237,299.8852c0.8586-1.2209,1.2877-3.3656,1.2877-6.4399
	c0-3.0714-0.4523-5.1956-1.3546-6.3717c-0.9049-1.1731-2.3057-1.762-4.2037-1.762h-3.5236v16.4033h3.3888
	C588.7966,301.7151,590.2639,301.1046,591.1237,299.8852z"/>
<path fill="#262626" d="M686.0841,347.2653h-53.6823v-84.1864h55.5848l-1.9025,22.3675h-24.6687v10.1679h21.554v19.5209h-21.554
	v11.5239h26.5715L686.0841,347.2653z"/>
</svg>
